# Blender v2.74 (sub 0) OBJ File: 'stylus.blend'
# www.blender.org
v 0.022937 0.035823 -0.023324
v 0.663327 0.909321 -0.043859
v 0.764356 0.828498 -0.043859
v 0.275894 0.358103 -0.023324
v 1.421044 1.687244 -0.043859
v 1.410941 2.808665 -0.043859
v 1.693822 2.838974 -0.043859
v 1.714028 1.747861 -0.043859
v 2.734421 1.606421 -0.043859
v 2.663700 1.293231 -0.043859
v 1.724131 1.434671 -0.043859
v 0.936105 0.676954 -0.043859
v 0.785981 0.667022 -0.023324
v 0.357764 0.271809 -0.023324
v 0.023285 0.035516 0.099886
v 0.663327 0.909321 0.120421
v 0.764356 0.828498 0.120421
v 0.276111 0.357912 0.099886
v 1.421044 1.687244 0.120421
v 1.410941 2.808665 0.120421
v 1.693822 2.838974 0.120421
v 1.714028 1.747861 0.120421
v 2.734421 1.606421 0.120421
v 2.663700 1.293231 0.120421
v 1.724131 1.434671 0.120421
v 0.936105 0.676954 0.120421
v 0.785982 0.667021 0.099886
v 0.358079 0.271531 0.099886
v 1.611318 1.570820 0.120421
v 1.584129 1.553718 -0.043859
v 1.055490 1.311941 -0.043859
v 1.055490 1.311941 0.120421
v 0.689309 0.756629 -0.023324
v 0.689525 0.756438 0.099886
v 0.776250 0.763417 0.120421
v 0.860779 0.788772 0.120421
v 0.972125 0.887166 0.120421
v 0.804453 0.841233 0.120421
v 0.770927 0.762978 -0.043859
v 0.855770 0.788056 -0.043859
v 0.846429 0.749037 -0.043859
v 0.799841 0.840167 -0.043859
vt 0.000000 0.000000
vt 1.000000 0.000000
vt 1.000000 1.000000
vt 0.000000 1.000000
vn 0.576200 -0.817300 -0.003300
vn 0.678700 -0.734400 -0.000000
vn 0.066000 -0.997800 0.000000
vn 0.693100 -0.720800 0.000000
vn -0.148900 -0.988900 0.000000
vn 0.975400 -0.220300 0.000000
vn 0.137300 0.990500 0.000000
vn 0.999800 0.018500 0.000000
vn -0.106500 0.994300 0.000000
vn -0.786900 0.617100 0.003800
vn -0.693600 0.720300 0.000000
vn -0.624700 -0.780900 0.000000
vn -0.716300 0.697700 0.000000
vn -1.000000 -0.009000 0.000000
vn 0.000000 0.000000 1.000000
vn 0.130100 -0.395600 -0.909100
vn 0.000000 0.000000 -1.000000
vn -0.540100 0.560300 -0.627900
vn -0.123900 -0.154100 -0.980300
vn -0.446900 0.107000 -0.888200
vn 0.016400 -0.055600 -0.998300
vn -0.059700 0.022400 -0.998000
vn 0.292500 -0.331000 0.897100
vn 0.016800 -0.055900 0.998300
vn -0.058000 0.021000 0.998100
vn -0.513000 0.532100 0.673600
vn -0.694000 0.720000 0.002300
vn -0.137000 0.023500 0.990300
vn 0.123300 -0.388300 0.913200
vn 0.576100 -0.817400 -0.003700
vn 0.678200 -0.734900 -0.003400
vn -0.786600 0.617400 0.002300
vn -0.691300 0.722600 0.002300
vn 0.300100 -0.325200 -0.896700
vn 0.071800 -0.101900 -0.992200
vn -0.114600 0.090000 -0.989300
vn 0.318500 -0.344600 0.883100
vn 0.072900 -0.103400 0.992000
vn -0.111600 0.087500 0.989900
s off
f 14/1/1 28/2/1 15/3/1
f 13/1/2 27/2/2 28/3/2
f 12/1/3 26/2/3 27/3/3
f 25/2/4 26/3/4 12/4/4
f 24/2/5 25/3/5 11/4/5
f 9/1/6 23/2/6 24/3/6
f 22/2/7 23/3/7 9/4/7
f 21/2/8 22/3/8 8/4/8
f 20/2/9 21/3/9 7/4/9
f 1/1/10 15/2/10 18/3/10
f 34/2/11 17/3/11 3/4/11
f 17/2/12 16/3/12 2/4/12
f 32/2/13 19/3/13 5/4/13
f 19/2/14 20/3/14 6/4/14
f 24/1/15 29/2/15 25/3/15
f 23/1/15 29/2/15 24/3/15
f 22/1/15 29/2/15 23/3/15
f 21/1/15 29/2/15 22/3/15
f 20/1/15 29/2/15 21/3/15
f 19/1/15 29/2/15 20/3/15
f 42/1/16 33/2/16 3/3/16
f 42/1/17 2/2/17 31/3/17
f 31/1/17 11/2/17 12/3/17
f 40/1/17 39/2/17 42/3/17
f 11/1/17 30/2/17 10/3/17
f 10/1/17 30/2/17 9/3/17
f 9/1/17 30/2/17 8/3/17
f 8/1/17 30/2/17 7/3/17
f 7/1/17 30/2/17 6/3/17
f 31/1/17 12/2/17 40/3/17
f 33/1/18 42/2/18 4/3/18
f 12/1/17 41/2/17 40/3/17
f 12/1/19 13/2/19 41/3/19
f 6/1/17 30/2/17 5/3/17
f 16/2/13 32/3/13 31/4/13
f 40/2/20 41/3/20 13/4/20
f 39/2/21 40/3/21 14/4/21
f 4/1/22 42/2/22 39/3/22
f 27/1/23 37/2/23 36/3/23
f 28/1/24 36/2/24 35/3/24
f 35/2/25 38/3/25 18/4/25
f 18/1/26 38/2/26 34/3/26
f 18/2/27 34/3/27 33/4/27
f 31/1/17 5/2/17 30/3/17
f 25/1/15 32/2/15 37/3/15
f 37/1/15 26/2/15 25/3/15
f 38/1/15 36/2/15 37/3/15
f 37/1/28 27/2/28 26/3/28
f 32/1/15 29/2/15 19/3/15
f 17/1/15 38/2/15 16/3/15
f 17/1/29 34/2/29 38/3/29
f 38/1/15 37/2/15 16/3/15
f 32/1/15 25/2/15 29/3/15
f 38/1/15 35/2/15 36/3/15
f 37/1/15 32/2/15 16/3/15
f 11/1/17 31/2/17 30/3/17
f 42/1/17 3/2/17 2/3/17
f 31/1/17 40/2/17 42/3/17
f 1/4/30 14/1/30 15/3/30
f 14/4/31 13/1/31 28/3/31
f 13/4/3 12/1/3 27/3/3
f 11/1/4 25/2/4 12/4/4
f 10/1/5 24/2/5 11/4/5
f 10/4/6 9/1/6 24/3/6
f 8/1/7 22/2/7 9/4/7
f 7/1/8 21/2/8 8/4/8
f 6/1/9 20/2/9 7/4/9
f 4/4/32 1/1/32 18/3/32
f 33/1/33 34/2/33 3/4/33
f 3/1/12 17/2/12 2/4/12
f 31/1/13 32/2/13 5/4/13
f 5/1/14 19/2/14 6/4/14
f 2/1/13 16/2/13 31/4/13
f 14/1/34 40/2/34 13/4/34
f 1/1/35 39/2/35 14/4/35
f 1/4/36 4/1/36 39/3/36
f 28/4/37 27/1/37 36/3/37
f 15/4/38 28/1/38 35/3/38
f 15/1/39 35/2/39 18/4/39
f 4/1/27 18/2/27 33/4/27
